<?xml version="1.0" encoding="utf-8"?>
<!-- Generator: Adobe Illustrator 16.0.0, SVG Export Plug-In . SVG Version: 6.00 Build 0)  -->
<!DOCTYPE svg PUBLIC "-//W3C//DTD SVG 1.1//EN" "http://www.w3.org/Graphics/SVG/1.1/DTD/svg11.dtd">
<svg version="1.1" id="Layer_1" xmlns="http://www.w3.org/2000/svg" xmlns:xlink="http://www.w3.org/1999/xlink" x="0px" y="0px"
	 width="80.633px" height="100px" viewBox="0 0 80.633 100" enable-background="new 0 0 80.633 100" xml:space="preserve">
<rect x="16.771" y="16.969" fill="#020202" width="35.127" height="1.482"/>
<polygon fill="#020202" points="5.696,6.889 64.027,6.889 64.027,21.909 69.725,21.909 69.725,0 0,0 0,75.789 8.607,75.789 
	8.607,70.096 5.697,70.096 "/>
<path fill="#020202" d="M10.909,24.21V100h60.862c4.537,0,8.861-5.357,8.861-11.355V24.21H10.909z M71.771,93.111H16.605V31.099
	h58.333v57.547h0.002C74.939,90.432,73.669,93.111,71.771,93.111z"/>
<rect x="27.68" y="41.179" fill="#020202" width="35.126" height="4.468"/>
<rect x="44.348" y="53.046" fill="#020202" width="22.465" height="25.902"/>
<rect x="25.675" y="53.046" fill="#020202" width="13.397" height="2.295"/>
<rect x="25.675" y="67.846" fill="#020202" width="13.397" height="2.297"/>
<rect x="25.675" y="82.137" fill="#020202" width="13.397" height="2.299"/>
<rect x="25.675" y="60.572" fill="#020202" width="13.397" height="2.297"/>
<rect x="25.675" y="74.865" fill="#020202" width="13.397" height="2.297"/>
</svg>
