<svg xmlns="http://www.w3.org/2000/svg" xmlns:xlink="http://www.w3.org/1999/xlink" version="1.1" id="Your_Icon" x="0px" y="0px" width="100px" height="100px" viewBox="0 0 100 100" enable-background="new 0 0 100 100" xml:space="preserve">
<path fill-rule="evenodd" clip-rule="evenodd" d="M32.859,20.351h63.193c2.18,0,3.947,1.806,3.947,4.035v4.034  c0,2.229-1.768,4.037-3.947,4.037H32.859c-2.181,0-3.95-1.808-3.95-4.037v-4.034C28.909,22.157,30.679,20.351,32.859,20.351z"/>
<path fill-rule="evenodd" clip-rule="evenodd" d="M5.21,20.351h11.851c2.179,0,3.951,1.806,3.951,4.035v4.034  c0,2.229-1.772,4.037-3.951,4.037H5.21c-2.179,0-3.946-1.808-3.946-4.037v-4.034C1.264,22.157,3.031,20.351,5.21,20.351z"/>
<path fill-rule="evenodd" clip-rule="evenodd" d="M32.859,43.611h63.193c2.18,0,3.947,1.807,3.947,4.036v4.033  c0,2.229-1.768,4.037-3.947,4.037H32.859c-2.181,0-3.95-1.809-3.95-4.037v-4.033C28.909,45.417,30.679,43.611,32.859,43.611z"/>
<path fill-rule="evenodd" clip-rule="evenodd" d="M32.859,66.871h63.193c2.18,0,3.947,1.805,3.947,4.035v4.034  c0,2.23-1.768,4.035-3.947,4.035H32.859c-2.181,0-3.95-1.805-3.95-4.035v-4.034C28.909,68.676,30.679,66.871,32.859,66.871z"/>
<path fill-rule="evenodd" clip-rule="evenodd" d="M5.21,43.611h11.851c2.179,0,3.951,1.807,3.951,4.036v4.033  c0,2.229-1.772,4.037-3.951,4.037H5.21c-2.179,0-3.946-1.809-3.946-4.037v-4.033C1.264,45.417,3.031,43.611,5.21,43.611z"/>
<path fill-rule="evenodd" clip-rule="evenodd" d="M5.21,66.871h11.851c2.179,0,3.951,1.805,3.951,4.035v4.034  c0,2.23-1.772,4.035-3.951,4.035H5.21c-2.179,0-3.946-1.805-3.946-4.035v-4.034C1.264,68.676,3.031,66.871,5.21,66.871z"/>
</svg>