<?xml version="1.0" encoding="utf-8"?>
<!-- Generator: Adobe Illustrator 15.1.0, SVG Export Plug-In . SVG Version: 6.00 Build 0)  -->
<!DOCTYPE svg PUBLIC "-//W3C//DTD SVG 1.1//EN" "http://www.w3.org/Graphics/SVG/1.1/DTD/svg11.dtd">
<svg version="1.1" id="Layer_1" xmlns="http://www.w3.org/2000/svg" xmlns:xlink="http://www.w3.org/1999/xlink" x="0px" y="0px"
	 width="100px" height="89.455px" viewBox="-72.171 -24.494 100 89.455" enable-background="new -72.171 -24.494 100 89.455"
	 xml:space="preserve">
<g>
	<path d="M-22.615-24.457c-0.904,0.144-1.675,0.7-2.109,1.476l-47.06,83.402c-0.516,0.918-0.517,2.095,0,3.008
		c0.524,0.926,1.494,1.532,2.551,1.532H24.89c1.055,0,2.028-0.606,2.552-1.532c0.516-0.913,0.516-2.09,0-3.008l-47.06-83.402
		C-20.222-24.057-21.391-24.653-22.615-24.457 M-22.171-14.863l39.957,71.99h-79.97L-22.171-14.863z"/>
	<path fill="#010101" d="M-21.914,43.376c-2.705,0-4.905,2.24-4.905,4.994s2.2,4.994,4.905,4.994s4.905-2.24,4.905-4.994
		S-19.209,43.376-21.914,43.376z"/>
	<path fill="#010101" d="M-20.408,1.583h-3.416c-2.302,0-4.106,2.666-4.104,6.128l1.457,23.264c0,3.403,1.805,6.068,4.109,6.068
		h0.494c2.302,0,4.105-2.665,4.103-6.007l1.463-23.387C-16.301,4.249-18.105,1.583-20.408,1.583z"/>
</g>
</svg>
