<svg xmlns="http://www.w3.org/2000/svg" xmlns:xlink="http://www.w3.org/1999/xlink" xml:space="preserve" width="69px" height="98px" style="shape-rendering:geometricPrecision; text-rendering:geometricPrecision; image-rendering:optimizeQuality; fill-rule:evenodd; clip-rule:evenodd" viewBox="0 0 20.9736 29.6858">
 <defs>
  <style type="text/css">
   
    .fil0 {fill:black}
    .fil1 {fill:#FEFEFE}
   
  </style>
 </defs>
 <g id="Layer_x0020_1">
  <metadata id="CorelCorpID_0Corel-Layer"/>
  <path class="fil0" d="M1.90637 2.99158l5.58887 0c0,-1.65233 1.3389,-2.99158 2.99158,-2.99158 1.65269,0 2.99194,1.3389 2.99194,2.99158l5.58851 0c1.04908,0 1.90637,0.857652 1.90637,1.90637l0 22.8814c0,1.04908 -0.857652,1.90637 -1.90637,1.90637l-17.1609 0c-1.04908,0 -1.90637,-0.857652 -1.90637,-1.90637l0 -22.8814c0,-1.04908 0.857652,-1.90637 1.90637,-1.90637l0 0z"/>
  <path class="fil1" d="M10.4868 0.894863c1.15785,0 2.09708,0.938873 2.09708,2.09672 0,0.382848 0.213966,0.741366 0.35494,1.04908l0.0747807 0c0.247599,0 0.459418,0.15958 0.53885,0.381417l2.55864 0c0.891643,0 1.62049,0.729201 1.62049,1.62084l0 0 -0.0243305 1.73284 -14.4427 -0.0164589 -0.0232571 -1.71638 0 0c0,-0.891643 0.728843,-1.62084 1.62049,-1.62084l2.55972 0c0.0794321,-0.22148 0.291251,-0.381417 0.53885,-0.381417l0.0747807 0c0.140616,-0.30771 0.355298,-0.666228 0.355298,-1.04908 0,-1.15749 0.938873,-2.09672 2.09672,-2.09672l-0.000357802 0zm0 1.04657c0.526685,0 0.953543,0.426858 0.953543,0.953543 0,0.526685 -0.426858,0.953185 -0.953543,0.953185 -0.526685,0 -0.953185,-0.4265 -0.953185,-0.953185 0,-0.526685 0.4265,-0.953543 0.953185,-0.953543z"/>
  <path class="fil1" d="M2.90786 10.855l1.54606 0 0 1.04943 -1.54606 0 0 -1.04943zm2.9762 0l12.1814 0 0 1.04943 -12.1814 0 0 -1.04943z"/>
  <path class="fil1" d="M2.90786 15.447l1.54606 0 0 1.04908 -1.54606 0 0 -1.04908zm2.9762 0l12.1814 0 0 1.04908 -12.1814 0 0 -1.04908z"/>
  <path class="fil1" d="M2.90786 20.0373l1.54606 0 0 1.04908 -1.54606 0 0 -1.04908zm2.9762 0l12.1814 0 0 1.04908 -12.1814 0 0 -1.04908z"/>
  <path class="fil1" d="M2.90786 24.6279l1.54606 0 0 1.04872 -1.54606 0 0 -1.04872zm2.9762 0l12.1814 0 0 1.04872 -12.1814 0 0 -1.04872z"/>
 </g>
</svg>